<svg id="PATTERN" xmlns="http://www.w3.org/2000/svg" xmlns:xlink="http://www.w3.org/1999/xlink" viewBox="0 0 1000 1001"><defs><style>.cls-1{fill:none;}.cls-2{clip-path:url(#clip-path);}.cls-3{fill:#1e1e1e;}.cls-4{clip-path:url(#clip-path-2);}.cls-5{clip-path:url(#clip-path-3);}.cls-6{clip-path:url(#clip-path-4);}.cls-7{opacity:0.18;fill:url(#Nueva_muestra_de_motivo_5);}</style><clipPath id="clip-path"><rect class="cls-1" x="3.75" y="198.75" width="210" height="210"/></clipPath><clipPath id="clip-path-2"><rect class="cls-1" x="-206.25" y="198.75" width="210" height="210"/></clipPath><clipPath id="clip-path-3"><rect class="cls-1" x="3.75" y="-11.25" width="210" height="210"/></clipPath><clipPath id="clip-path-4"><rect class="cls-1" x="-206.25" y="-11.25" width="210" height="210"/></clipPath><pattern id="Nueva_muestra_de_motivo_5" data-name="Nueva muestra de motivo 5" width="210" height="210" patternUnits="userSpaceOnUse" viewBox="0 0 210 210"><rect class="cls-1" width="210" height="210"/><g class="cls-2"><path class="cls-3" d="M13.33,221.22-4.33,203.28l-9.48,11.07,17.61,17Zm-17.5-13.5L9.17,221.28,3.7,227.11l-13.39-13Z"/><path class="cls-3" d="M200.83,199l-9.63-9.35-7,7-14.95-15-10.15,9.52,7.05,7.55-7.29,7.54,17.23,17.09Zm-30.51-.22-6.95-7.45,5.85-5.48,15,15,7-7,5.3,5.15-20.41,20.13-13-12.91Z"/><path class="cls-3" d="M140.87,183.75l-9.62-9.62-25.12,25.12,9.62,9.62Zm-9.62-5.38,5.38,5.38-20.88,20.88-5.38-5.38Z"/><path class="cls-3" d="M133.36,236.26,86.71,188.82,77.18,199.3l46.57,46.57ZM86.79,193.18l42.35,43.06-5.39,5.39L81.32,199.2Z"/><path class="cls-3" d="M28.37,206.25,10.75,188.63l-9.62,9.62,17.62,17.62ZM10.75,192.87l13.38,13.38-5.38,5.38L5.37,198.25Z"/><path class="cls-3" d="M223.33,221.22l-17.66-17.94-9.48,11.07,17.61,17Zm-17.5-13.5,13.34,13.56-5.47,5.83-13.39-13Z"/><path class="cls-3" d="M73.37,206.25l-9.62-9.62-7.5,7.5-15-15-9.62,9.62,24.62,24.62ZM41.25,193.37l15,15,7.5-7.5,5.38,5.38L56.25,219.13,35.87,198.75Z"/><path class="cls-3" d="M163.41,221.22l-10.21-9.57-7.2,7.44-5.15-5.32,15-15-9.62-9.62L121.5,213.74,146,238.37Zm-17.16-27.85,5.38,5.38-15,15,9.35,9.68,7.3-7.56,5.79,5.43L146,234.13l-20.26-20.37Z"/></g><g class="cls-4"><path class="cls-3" d="M13.33,221.22-4.33,203.28l-9.48,11.07,17.61,17Zm-17.5-13.5L9.17,221.28,3.7,227.11l-13.39-13Z"/><path class="cls-3" d="M28.37,206.25,10.75,188.63l-9.62,9.62,17.62,17.62ZM10.75,192.87l13.38,13.38-5.38,5.38L5.37,198.25Z"/></g><g class="cls-5"><path class="cls-3" d="M118.37,71.25,93.75,46.63l-9.62,9.62,24.62,24.62ZM93.75,50.87l20.38,20.38-5.38,5.38L88.37,56.25Z"/><path class="cls-3" d="M178.37,56.25l-9.62-9.62-22.5,22.5L133.37,56.25l5.88-5.88,7.5,7.5,9.62-9.62L139.25,31.13l-15.5,15.5-30-30L61.63,48.75l9.62,9.62,22.5-22.5,52.5,52.5ZM71.25,54.13l-5.38-5.38L93.75,20.87l30,30,15.5-15.5,12.88,12.88-5.38,5.38-7.5-7.5L129.13,56.25l17.12,17.12,22.5-22.5,5.38,5.38L146.25,84.13l-52.5-52.5Z"/><path class="cls-3" d="M88.37,71.25l-9.62-9.62-7.5,7.5-23-23-9.62,9.62L71.25,88.37ZM48.25,50.37l23,23,7.5-7.5,5.38,5.38L71.25,84.13,42.87,55.75Z"/><path class="cls-3" d="M93.75,95.87l15,15,9.62-9.62L93.75,76.63,61.63,108.75l9.62,9.62Zm0-15,20.38,20.38-5.38,5.38-15-15-22.5,22.5-5.38-5.38Z"/><path class="cls-3" d="M148.37,101.25l-9.62-9.62-30,30-15-15-9.62,9.62,24.62,24.62Zm-54.62,9.62,15,15,30-30,5.38,5.38-35.38,35.38L88.37,116.25Z"/><path class="cls-3" d="M95.87,138.75,78.75,121.63l-9.62,9.62,17.12,17.12ZM78.75,125.87l12.88,12.88-5.38,5.38L73.37,131.25Z"/><path class="cls-3" d="M193.37,116.25,161.25,84.13l-9.62,9.62,32.12,32.12ZM161.25,88.37l27.88,27.88-5.38,5.38L155.87,93.75Z"/><path class="cls-3" d="M193.37,146.25l-39.62-39.62-24.62,24.62,9.62,9.62,15-15,5.38,5.38-15,15,9.62,9.62,15-15,15,15Zm-39.62,5.38-5.38-5.38,15-15-9.62-9.62-15,15-5.38-5.38,20.38-20.38,35.38,35.38-5.38,5.38-15-15Z"/><path class="cls-3" d="M178.37,161.25l-9.62-9.62-15,15-30-30-9.62,9.62,39.62,39.62Zm-54.62-20.38,30,30,15-15,5.38,5.38-20.38,20.38-35.38-35.38Z"/><path class="cls-3" d="M73.37,146.25l-9.62-9.62L39.13,161.25l9.62,9.62Zm-9.62-5.38,5.38,5.38L48.75,166.63l-5.38-5.38Z"/><path class="cls-3" d="M133.37,86.25l-9.62-9.62-9.62,9.62,9.62,9.62Zm-9.62-5.38,5.38,5.38-5.38,5.38-5.38-5.38Z"/><path class="cls-3" d="M110.87,153.75l-9.62-9.62-9.62,9.62,9.62,9.62Zm-9.62-5.38,5.38,5.38-5.38,5.38-5.38-5.38Z"/><path class="cls-3" d="M125.87,168.75l-9.62-9.62-15,15-22.5-22.5-9.62,9.62,32.12,32.12ZM78.75,155.87l22.5,22.5,15-15,5.38,5.38-20.38,20.38L73.37,161.25Z"/><path class="cls-3" d="M208.37,56.25l-9.62-9.62L166.63,78.75l9.62,9.62Zm-9.62-5.38,5.38,5.38L176.25,84.13l-5.38-5.38Z"/><path class="cls-3" d="M140.87,183.75l-9.62-9.62-25.12,25.12,9.62,9.62Zm-9.62-5.38,5.38,5.38-20.88,20.88-5.38-5.38Z"/><path class="cls-3" d="M80.87,183.75,63.75,166.63,46.63,183.75l9.62,9.62,7.5-7.5,7.5,7.5Zm-24.62,5.38-5.38-5.38,12.88-12.88,12.88,12.88-5.38,5.38-7.5-7.5Z"/><path class="cls-3" d="M193.39,41.34,168.23,17.48,151.62,33.74l9.66,9.66,7.08-7.5,15.4,15.23ZM161.22,39.1l-5.34-5.34,12.39-12.11,20.84,19.76-5.37,5.47L168.29,31.6Z"/><path class="cls-3" d="M88.37,11.25,78.75,1.63l-9.62,9.62,9.62,9.62ZM78.75,5.87l5.38,5.38-5.38,5.38-5.38-5.38Z"/><path class="cls-3" d="M20.37,109.25l-9.62-9.62-31.62,31.62,9.62,9.62Zm-9.62-5.38,5.38,5.38-27.38,27.38-5.38-5.38Z"/><path class="cls-3" d="M-1.63,56.25l-9.62-9.62L-43.37,78.75l9.62,9.62Zm-9.62-5.38,5.38,5.38L-33.75,84.13l-5.38-5.38Z"/><path class="cls-3" d="M5.85,93.77-1.63,86l7.56-7.31-9.7-9L-28.38,93.74l17.13,17.13Zm-9.58-20,5.3,5L-5.87,86l7.52,7.77-12.9,12.9L-24.12,93.76Z"/><path class="cls-3" d="M28.37,26.75l-9.62-9.62-15,15-22.5-22.5-9.62,9.62L3.75,51.37ZM-18.75,13.87l22.5,22.5,15-15,5.38,5.38L3.75,47.13-24.13,19.25Z"/><path class="cls-3" d="M13.37,176.25l-9.64-9.64-7.48,7.73-5.4-5.57L3.76,155.86l15,14.73,9.65-9.32L3.75,136.63l-39.62,39.62,9.62,9.62,7.5-7.5,15,15Zm-39.62,5.38-5.38-5.38L3.75,140.87l20.36,20.36-5.35,5.18-15-14.77-17.09,17.09,9.6,9.93,7.52-7.77,5.36,5.36L-3.75,189.13l-15-15Z"/><path class="cls-3" d="M43.37,41.25l-9.62-9.62L1.63,63.75l9.62,9.62Zm-9.62-5.38,5.38,5.38L11.25,69.13,5.87,63.75Z"/><path class="cls-3" d="M43.37,71.25l-9.62-9.62L9.13,86.25l9.62,9.62Zm-9.62-5.38,5.38,5.38L18.75,91.63l-5.38-5.38Z"/><path class="cls-3" d="M48.75,95.87l7.5,7.5,9.62-9.62L48.75,76.63,24.13,101.25l9.62,9.62Zm0-15L61.63,93.75l-5.38,5.38-7.5-7.5-15,15-5.38-5.38Z"/><path class="cls-3" d="M42.87,145.75l-14.5-14.5,7.5-7.5-9.62-9.62L9.13,131.25l24.12,24.12ZM26.25,118.37l5.38,5.38-7.5,7.5,14.5,14.5-5.38,5.38L13.37,131.25Z"/><path class="cls-3" d="M65.87,123.75,48.75,106.63l-9.62,9.62,7.5,7.5-7.5,7.5,9.62,9.62Zm-15,0-7.5-7.5,5.38-5.38,12.88,12.88L48.75,136.63l-5.38-5.38Z"/><path class="cls-3" d="M43.37,176.25l-9.62-9.62L17.13,183.25l9.62,9.62Zm-9.62-5.38,5.38,5.38L26.75,188.63l-5.38-5.38Z"/><path class="cls-3" d="M208.37,56.25l-9.62-9.62L166.63,78.75l9.62,9.62Zm-9.62-5.38,5.38,5.38L176.25,84.13l-5.38-5.38Z"/><path class="cls-3" d="M13.33,11.22-4.33-6.72-13.81,4.35l17.61,17ZM-4.17-2.28,9.17,11.28,3.7,17.11l-13.39-13Z"/><path class="cls-3" d="M133.36,236.26,86.71,188.82,77.18,199.3l46.57,46.57ZM86.79,193.18l42.35,43.06-5.39,5.39L81.32,199.2Z"/><path class="cls-3" d="M200.83,199l-9.63-9.35-7,7-14.95-15-10.15,9.52,7.05,7.55-7.29,7.54,17.23,17.09Zm-30.51-.22-6.95-7.45,5.85-5.48,15,15,7-7,5.3,5.15-20.41,20.13-13-12.91Z"/><path class="cls-3" d="M200.83-11l-9.63-9.35-7,7-14.95-15-10.15,9.52,7.05,7.55-7.29,7.54,17.23,17.09Zm-30.51-.22-6.95-7.45,5.85-5.48,15,15,7-7,5.3,5.15L176.13,9.14l-13-12.91Z"/><path class="cls-3" d="M73.37,206.25l-9.62-9.62-7.5,7.5-15-15-9.62,9.62,24.62,24.62ZM41.25,193.37l15,15,7.5-7.5,5.38,5.38L56.25,219.13,35.87,198.75Z"/><path class="cls-3" d="M163.41,221.22l-10.21-9.57-7.2,7.44-5.15-5.32,15-15-9.62-9.62L121.5,213.74,146,238.37Zm-17.16-27.85,5.38,5.38-15,15,9.35,9.68,7.3-7.56,5.79,5.43L146,234.13l-20.26-20.37Z"/><path class="cls-3" d="M140.87-26.25l-9.62-9.62L106.13-10.75l9.62,9.62Zm-9.62-5.38,5.38,5.38L115.75-5.37l-5.38-5.38Z"/><path class="cls-3" d="M133.36,26.26,86.71-21.18,77.18-10.7l46.57,46.57ZM86.79-16.82l42.35,43.06-5.39,5.39L81.32-10.8Z"/><path class="cls-3" d="M28.37-3.75,10.75-21.37,1.13-11.75,18.75,5.87ZM10.75-17.13,24.13-3.75,18.75,1.63,5.37-11.75Z"/><path class="cls-3" d="M28.37,206.25,10.75,188.63l-9.62,9.62,17.62,17.62ZM10.75,192.87l13.38,13.38-5.38,5.38L5.37,198.25Z"/><path class="cls-3" d="M230.37,109.25l-9.62-9.62-31.62,31.62,9.62,9.62Zm-9.62-5.38,5.38,5.38-27.38,27.38-5.38-5.38Z"/><path class="cls-3" d="M208.37,56.25l-9.62-9.62L166.63,78.75l9.62,9.62Zm-9.62-5.38,5.38,5.38L176.25,84.13l-5.38-5.38Z"/><path class="cls-3" d="M215.85,93.77,208.37,86l7.56-7.31-9.7-9L181.62,93.74l17.13,17.13Zm-9.58-20,5.3,5L204.13,86l7.52,7.77-12.9,12.9L185.88,93.76Z"/><path class="cls-3" d="M238.37,26.75l-9.62-9.62-15,15-22.5-22.5-9.62,9.62,32.12,32.12ZM191.25,13.87l22.5,22.5,15-15,5.38,5.38L213.75,47.13,185.87,19.25Z"/><path class="cls-3" d="M223.37,176.25l-9.64-9.64-7.48,7.73-5.4-5.57,12.91-12.91,15,14.73,9.65-9.32-24.64-24.64-39.62,39.62,9.62,9.62,7.5-7.5,15,15Zm-39.62,5.38-5.38-5.38,35.38-35.38,20.36,20.36-5.35,5.18-15-14.77-17.09,17.09,9.6,9.93,7.52-7.77,5.36,5.36-12.88,12.88-15-15Z"/><path class="cls-3" d="M253.37,41.25l-9.62-9.62L211.63,63.75l9.62,9.62Zm-9.62-5.38,5.38,5.38L221.25,69.13l-5.38-5.38Z"/><path class="cls-3" d="M223.33,11.22,205.67-6.72,196.19,4.35l17.61,17Zm-17.5-13.5,13.34,13.56-5.47,5.83-13.39-13Z"/><path class="cls-3" d="M238.37-3.75,220.75-21.37l-9.62,9.62L228.75,5.87ZM220.75-17.13,234.13-3.75l-5.38,5.38L215.37-11.75Z"/><path class="cls-3" d="M238.37,206.25l-17.62-17.62-9.62,9.62,17.62,17.62Zm-17.62-13.38,13.38,13.38-5.38,5.38-13.38-13.38Z"/><path class="cls-3" d="M73.37-3.75l-9.62-9.62-7.5,7.5-15-15-9.62,9.62L56.25,13.37ZM41.25-16.63l15,15,7.5-7.5,5.38,5.38L56.25,9.13,35.87-11.25Z"/><path class="cls-3" d="M163.41,11.22,153.2,1.65,146,9.09l-5.15-5.32,15-15-9.62-9.62L121.5,3.74,146,28.37ZM146.25-16.63l5.38,5.38-15,15L146,13.41l7.3-7.56,5.79,5.43L146,24.13,125.75,3.76Z"/><path class="cls-3" d="M73.37,26.25l-9.62-9.62-7.5,7.5L33.75,1.63l-9.62,9.62L56.25,43.37ZM33.75,5.87l22.5,22.5,7.5-7.5,5.38,5.38L56.25,39.13,28.37,11.25Z"/></g><g class="cls-6"><path class="cls-3" d="M20.37,109.25l-9.62-9.62-31.62,31.62,9.62,9.62Zm-9.62-5.38,5.38,5.38-27.38,27.38-5.38-5.38Z"/><path class="cls-3" d="M5.85,93.77-1.63,86l7.56-7.31-9.7-9L-28.38,93.74l17.13,17.13Zm-9.58-20,5.3,5L-5.87,86l7.52,7.77-12.9,12.9L-24.12,93.76Z"/><path class="cls-3" d="M28.37,26.75l-9.62-9.62-15,15-22.5-22.5-9.62,9.62L3.75,51.37ZM-18.75,13.87l22.5,22.5,15-15,5.38,5.38L3.75,47.13-24.13,19.25Z"/><path class="cls-3" d="M13.37,176.25l-9.64-9.64-7.48,7.73-5.4-5.57L3.76,155.86l15,14.73,9.65-9.32L3.75,136.63l-39.62,39.62,9.62,9.62,7.5-7.5,15,15Zm-39.62,5.38-5.38-5.38L3.75,140.87l20.36,20.36-5.35,5.18-15-14.77-17.09,17.09,9.6,9.93,7.52-7.77,5.36,5.36L-3.75,189.13l-15-15Z"/><path class="cls-3" d="M43.37,41.25l-9.62-9.62L1.63,63.75l9.62,9.62Zm-9.62-5.38,5.38,5.38L11.25,69.13,5.87,63.75Z"/><path class="cls-3" d="M13.33,11.22-4.33-6.72-13.81,4.35l17.61,17ZM-4.17-2.28,9.17,11.28,3.7,17.11l-13.39-13Z"/><path class="cls-3" d="M28.37-3.75,10.75-21.37,1.13-11.75,18.75,5.87ZM10.75-17.13,24.13-3.75,18.75,1.63,5.37-11.75Z"/><path class="cls-3" d="M28.37,206.25,10.75,188.63l-9.62,9.62,17.62,17.62ZM10.75,192.87l13.38,13.38-5.38,5.38L5.37,198.25Z"/></g></pattern></defs><title>patterns</title><rect class="cls-7" width="500" height="500"/><rect class="cls-7" y="500" width="500" height="500"/><rect class="cls-7" x="500" y="1" width="500" height="500"/><rect class="cls-7" x="500" y="501" width="500" height="500"/></svg>